<?xml version="1.0" encoding="UTF-8" standalone="no"?>
<!-- Created with Inkscape (http://www.inkscape.org/) -->

<svg
   xmlns:dc="http://purl.org/dc/elements/1.1/"
   xmlns:cc="http://creativecommons.org/ns#"
   xmlns:rdf="http://www.w3.org/1999/02/22-rdf-syntax-ns#"
   xmlns:svg="http://www.w3.org/2000/svg"
   xmlns="http://www.w3.org/2000/svg"
   xmlns:xlink="http://www.w3.org/1999/xlink"
   version="1.1"
   width="900"
   height="125"
   id="svg2">
  <defs
     id="defs4">
    <linearGradient
       id="linearGradient19940">
      <stop
         id="stop19942"
         style="stop-color:#95cde4;stop-opacity:1"
         offset="0" />
      <stop
         id="stop19944"
         style="stop-color:#25518f;stop-opacity:1"
         offset="1" />
    </linearGradient>
    <linearGradient
       id="linearGradient3757-1-7-1-5-1-5-2-0-6-7-9-4-0-6-7-1">
      <stop
         id="stop3759-21-5-6-5-9-5-2-9-0-4-5-7-9-6-3-6"
         style="stop-color:#ffffff;stop-opacity:1"
         offset="0" />
      <stop
         id="stop3765-4-7-0-8-5-6-1-7-2-0-4-4-2-2-6-0"
         style="stop-color:#ffffff;stop-opacity:0.49803922"
         offset="0.5" />
      <stop
         id="stop3761-98-8-9-4-5-0-5-2-8-9-3-3-9-6-8-1"
         style="stop-color:#ffffff;stop-opacity:1"
         offset="1" />
    </linearGradient>
    <linearGradient
       x1="162.11229"
       y1="17.781557"
       x2="162.11229"
       y2="72.286011"
       id="linearGradient4867"
       xlink:href="#linearGradient3848-2-0-8-5-4-6-4-9-4-1-7-5-9-9-2-0"
       gradientUnits="userSpaceOnUse"
       gradientTransform="translate(98.79337,953.19495)" />
    <linearGradient
       id="linearGradient3848-2-0-8-5-4-6-4-9-4-1-7-5-9-9-2-0">
      <stop
         id="stop3850-9-2-9-4-7-3-4-4-2-7-4-5-3-6-4-7"
         style="stop-color:#ffffff;stop-opacity:1"
         offset="0" />
      <stop
         id="stop3852-9-0-0-7-3-4-2-4-08-1-2-3-9-6-29-5"
         style="stop-color:#ffffff;stop-opacity:0.49803922"
         offset="0.44349778" />
      <stop
         id="stop3854-8-8-0-2-4-9-5-8-78-1-7-7-4-2-2-5"
         style="stop-color:#ffffff;stop-opacity:1"
         offset="1" />
    </linearGradient>
  </defs>
  <metadata
     id="metadata7">
    <rdf:RDF>
      <cc:Work
         rdf:about="">
        <dc:format>image/svg+xml</dc:format>
        <dc:type
           rdf:resource="http://purl.org/dc/dcmitype/StillImage" />
        <dc:title></dc:title>
      </cc:Work>
    </rdf:RDF>
  </metadata>
  <g
     transform="matrix(1.6535142,0,0,1.6535142,-119.05492,-8.7317274)"
     id="stackoverflow">
    <path
       d="m 191.13839,50.075893 0,23.642857 37.81697,0 0,-23.642857 -3.71115,0 0,19.881493 -30.36399,0 0,-19.881493 z"
       id="rect2996"
       style="fill:#a5a5a5;fill-opacity:1;fill-rule:evenodd;stroke:none" />
    <rect
       width="23.839285"
       height="5.2678571"
       x="198.03572"
       y="60.933609"
       id="rect3804"
       style="fill:#a5a5a5;fill-opacity:1;stroke:none" />
    <rect
       width="23.839285"
       height="5.2678571"
       x="200.36494"
       y="40.725487"
       transform="matrix(0.99836181,0.05721622,-0.05721622,0.99836181,0,0)"
       id="rect3804-4"
       style="fill:#a5a5a5;fill-opacity:1;stroke:none" />
    <rect
       width="23.839285"
       height="5.2678571"
       x="203.86777"
       y="-15.611504"
       transform="matrix(0.96221506,0.27229061,-0.27229061,0.96221506,0,0)"
       id="rect3804-0"
       style="fill:#a5a5a5;fill-opacity:1;stroke:none" />
    <rect
       width="23.839285"
       height="5.2678571"
       x="191.62973"
       y="-80.232124"
       transform="matrix(0.85866307,0.51254047,-0.51254047,0.85866307,0,0)"
       id="rect3804-9"
       style="fill:#a5a5a5;fill-opacity:1;stroke:none" />
    <rect
       width="23.839285"
       height="5.2678571"
       x="137.66341"
       y="-169.86218"
       transform="matrix(0.5628597,0.82655246,-0.82655246,0.5628597,0,0)"
       id="rect3804-48"
       style="fill:#a5a5a5;fill-opacity:1;stroke:none" />
    <rect
       width="23.839285"
       height="5.2678571"
       x="47.526245"
       y="-229.17685"
       transform="matrix(0.1473363,0.98908645,-0.98908645,0.1473363,0,0)"
       id="rect3804-8"
       style="fill:#a5a5a5;fill-opacity:1;stroke:none" />
  </g>
  <path
     d="m 338.3348,13.171613 c -3.88641,0 -7,3.113592 -7,7 l 0,85.968737 c 0,3.88641 3.11359,7.03125 7,7.03125 l 85.96875,0 c 3.88641,0 7.03125,-3.14484 7.03125,-7.03125 l 0,-85.968737 c 0,-3.886408 -3.14484,-7 -7.03125,-7 l -85.96875,0 z m 9.28125,7.84375 c 5.5391,0 10.03125,4.492158 10.03125,10.03125 0,5.539061 -4.49215,10.03125 -10.03125,10.03125 -5.53909,0 -10.03125,-4.492189 -10.03125,-10.03125 0,-5.539092 4.49216,-10.03125 10.03125,-10.03125 z m 56.65625,26.15625 c 7.06676,0 12.28445,1.781566 15.65625,5.34375 3.37168,3.56229 5.09369,8.723132 5.09375,15.5 l 0.0312,37.281237 -19.90625,0 0,-32.999987 c -3e-5,-3.779469 -0.71159,-6.667548 -2.15625,-8.6875 -1.44474,-2.02006 -3.63244,-2.78125 -6.5625,-2.78125 -1.30229,0 -2.5713,0.183748 -3.8125,0.53125 -1.87939,0.533945 -5.15654,1.92413 -5.65625,4.875 l -0.0937,38.968737 -19.59375,0 0,-57.437487 19.65625,0 0,6 c 0.96994,-0.868806 2.08033,-1.718041 3.28125,-2.5 1.20086,-0.78185 2.54506,-1.454238 4,-2.0625 1.45492,-0.608154 3.03285,-1.099456 4.71875,-1.46875 1.68584,-0.369185 3.45001,-0.5625 5.34375,-0.5625 z m -66.65625,0.375 20.125,0 0,57.187487 -20.125,0 0,-57.187487 z"
     id="linkedin"
     style="fill:#a5a5a5;fill-opacity:1;stroke:none" />
  <g
     transform="translate(-3.5089285,-3.8283862)"
     id="mail">
    <rect
       width="124.31361"
       height="93.618896"
       ry="0"
       x="27.376263"
       y="20.182213"
       id="rect3873"
       style="fill:none;stroke:#a5a5a5;stroke-width:6.38110638;stroke-miterlimit:4;stroke-opacity:1;stroke-dasharray:none" />
    <path
       d="M 31.9805,26.129319 89.533098,82.722708 147.0857,26.129319"
       id="path3875"
       style="fill:none;stroke:#a5a5a5;stroke-width:8.50814247;stroke-linecap:round;stroke-linejoin:round;stroke-miterlimit:4;stroke-opacity:1;stroke-dasharray:none" />
    <path
       d="M 31.980515,109.10098 74.152975,67.631401 89.533113,82.914551 105.01322,67.7297 147.08571,109.10098"
       id="path3875-7"
       style="fill:none;stroke:#a5a5a5;stroke-width:6.83689976;stroke-linecap:round;stroke-linejoin:round;stroke-miterlimit:4;stroke-opacity:1;stroke-dasharray:none" />
  </g>
  <path
     d="m 530.28574,13.171606 c -28.30853,0 -51.26378,22.9521 -51.26378,51.270076 0,22.646837 14.68771,41.860128 35.0623,48.642218 2.56492,0.46892 3.49962,-1.11409 3.49962,-2.47366 0,-1.21479 -0.0441,-4.44061 -0.0692,-8.71758 -14.2597,3.09679 -17.26837,-6.873346 -17.26837,-6.873346 -2.33204,-5.92292 -5.69318,-7.49649 -5.69318,-7.49649 -4.65462,-3.181759 0.35248,-3.118817 0.35248,-3.118817 5.14558,0.365069 7.85212,5.28405 7.85212,5.28405 4.57279,7.833235 11.9969,5.570439 14.92059,4.261229 0.46578,-3.31394 1.78758,-5.573587 3.25415,-6.854474 -11.38321,-1.293474 -23.35179,-5.693178 -23.35179,-25.337642 0,-5.595617 1.99844,-10.171559 5.27776,-13.756153 -0.52872,-1.296623 -2.28798,-6.508287 0.50039,-13.567325 0,0 4.3053,-1.378448 14.0992,5.255725 4.08813,-1.139264 8.47525,-1.70575 12.83404,-1.72778 4.35249,0.0219 8.7396,0.588516 12.83404,1.72778 9.7876,-6.634173 14.08345,-5.255725 14.08345,-5.255725 2.79781,7.059038 1.03856,12.270702 0.50984,13.567325 3.28562,3.584594 5.27146,8.160536 5.27146,13.756153 0,19.694819 -11.98746,24.028433 -23.40844,25.29673 1.84108,1.583012 3.48074,4.71127 3.48074,9.494925 0,6.851315 -0.063,12.380845 -0.063,14.061415 0,1.37216 0.92211,2.96776 3.5248,2.46737 20.35256,-6.79469 35.03083,-25.995386 35.03083,-48.635928 0,-28.317976 -22.95525,-51.270076 -51.27008,-51.270076"
     id="path3005"
     style="fill:#a5a5a5;fill-opacity:1;fill-rule:evenodd;stroke:none" />
  <path
     d="m 659.06405,13.171605 c -0.29183,0 -0.57965,0.0091 -0.87056,0.01297 l 0,12.603579 c 0.29081,-0.0048 0.5786,-0.01297 0.87056,-0.01297 28.44468,0 51.50576,23.061074 51.50576,51.505764 0,0.39216 -0.004,0.77933 -0.013,1.1694 l 12.60358,0 c 0.007,-0.39031 0.013,-0.77741 0.013,-1.1694 0,-35.40364 -28.70571,-64.109344 -64.10934,-64.109344 z m 0,22.257664 c -0.29149,0 -0.58049,0.007 -0.87056,0.013 l 0,12.44766 c 0.28876,-0.008 0.57977,-0.026 0.87056,-0.026 16.24744,0 29.41701,13.16958 29.41701,29.41702 0,0.39052 -0.0109,0.78257 -0.026,1.1694 l 12.44766,0 c 0.0107,-0.38892 0.013,-0.77791 0.013,-1.1694 0,-23.1095 -18.74219,-41.85168 -41.85168,-41.85168 z m -27.75386,0.51973 c -2.9748,0.0412 -5.97541,1.49912 -7.2633,4.09292 -0.74434,1.49909 -0.80301,2.9403 -0.92253,23.63496 -0.13518,23.4067 0.0482,26.47777 1.78009,31.24908 3.4301,9.449801 12.20126,16.696781 21.76391,17.982841 9.77802,1.31502 18.61976,-2.33215 25.03825,-10.32974 3.81748,-4.756674 5.69511,-9.775121 6.09389,-16.254721 0.49091,-7.97646 -1.84165,-14.74756 -6.93846,-20.10076 -4.61035,-4.84227 -9.6683,-7.33725 -16.54057,-8.17284 -6.08084,-0.73936 -9.16874,0.39581 -10.91444,4.00196 -1.62474,3.35625 -0.92442,8.00458 1.54621,10.23879 1.25018,1.13055 3.68969,1.98799 5.65212,1.98799 2.97299,0 6.01316,1.12949 8.02991,2.98847 5.45775,5.03078 3.21348,15.07178 -4.06693,18.203727 -4.10926,1.76775 -9.24689,0.51472 -12.20079,-2.988477 -2.53938,-3.01161 -2.46292,-2.16773 -2.68962,-27.55896 -0.22868,-25.61206 -0.0928,-24.35747 -2.84556,-26.97426 -1.46253,-1.39028 -3.48679,-2.02917 -5.52218,-2.00098 z"
     id="path2998"
     style="fill:#a5a5a5;fill-opacity:1" />
  <path
     d="m 771.12473,13.174235 0,19.338887 c 0.44546,-0.0073 0.8931,-0.04787 1.34032,-0.04787 43.57136,0 78.88734,35.363832 78.88734,78.935208 0,0.60071 -0.028,1.17363 -0.0479,1.77114 l 19.33889,0 c 0.0153,-0.59788 0,-1.17069 0,-1.77114 0,-54.231048 -43.94733,-98.226227 -98.17836,-98.226227 -0.44702,0 -0.89471,-0.0059 -1.34032,0 z m 1.34032,34.082395 c -0.4465,0 -0.89599,0.03868 -1.34032,0.04787 l 0,19.051676 c 0.44232,-0.01225 0.89489,-0.04787 1.34032,-0.04787 24.88771,0 45.04429,20.204443 45.04429,45.092154 0,0.5982 -0.0247,1.17859 -0.0479,1.77114 l 19.09954,0 c 0.0168,-0.59575 0,-1.17146 0,-1.77114 0,-35.398967 -28.697,-64.14383 -64.09596,-64.14383 z m 11.67992,39.874488 c -7.18921,0 -13.02024,5.831035 -13.02024,13.020242 0,7.1892 5.83103,13.02024 13.02024,13.02024 7.18921,0 13.02024,-5.83104 13.02024,-13.02024 0,-7.189207 -5.83103,-13.020242 -13.02024,-13.020242 z"
     id="path3031"
     style="fill:#a5a5a5;fill-opacity:1" />
</svg>
